<svg xmlns="http://www.w3.org/2000/svg" enable-background="new 0 0 56 56" viewBox="0 0 56 56"><path fill="#ffffff" d="M6.9257812,24.2919922c-0.3330078-0.03125-0.6582031,0.1171875-0.8642578,0.3808594
	C5.8554688,24.9375,5.7949219,25.2861328,5.9003906,25.6035156c0.0459595,0.1387939,4.1494751,11.9611816,17.8427734,13.3549805
	v9.9641113l-4.5410156,2.1750488c-0.4980469,0.2392578-0.7089844,0.8359375-0.4707031,1.3339844
	C18.9033203,52.7910156,19.2617188,53,19.6347656,53c0.1445312,0,0.2919922-0.03125,0.4306641-0.0976562l3.6777344-1.7615356V52
	c0,0.5527344,0.4472656,1,1,1s1-0.4472656,1-1v-0.859314l3.6787109,1.7616577C29.5605469,52.96875,29.7080078,53,29.8525391,53
	c0.3730469,0,0.7314453-0.2089844,0.9033203-0.5683594c0.2382812-0.4980469,0.0273438-1.0947266-0.4707031-1.3339844
	l-4.5419922-2.1751099v-9.8448486c0.2284546,0.0056763,0.4512329,0.0180054,0.6845703,0.0180054
	c1.4707031,0,3.0380859-0.1152344,4.7070312-0.3662109c0.0477905-0.0078735,0.4655762-0.0825195,1.125-0.2827759v5.6096802
	L27.71875,46.2314453c-0.4980469,0.2392578-0.7089844,0.8359375-0.4707031,1.3339844
	c0.171875,0.359375,0.5302734,0.5683594,0.9033203,0.5683594c0.1445312,0,0.2919922-0.03125,0.4306641-0.0976562
	l3.6777344-1.7615356v0.2713013c0,0.5527344,0.4472656,1,1,1s1-0.4472656,1-1v-0.2714233l3.6787109,1.7616577
	c0.1386719,0.0664062,0.2861328,0.0976562,0.4306641,0.0976562c0.3730469,0,0.7314453-0.2089844,0.9033203-0.5683594
	c0.2382812-0.4980469,0.0273438-1.0947266-0.4707031-1.3339844l-4.5419922-2.1751099v-6.3734741
	c1.1592407-0.529541,2.5300293-1.3071899,3.9277344-2.4484863c3.2236328-2.6318359,7.1943359-7.7617188,7.8105469-17.2734375
	l0.1884766-4.2695312l3.3974609-1.6367188c0.3642578-0.1757812,0.5869141-0.5537109,0.5644531-0.9570312
	s-0.2851562-0.7539062-0.6660156-0.8876953l-4.1015625-1.4414062c-0.4794922-1.3681641-2.1591797-4.7646484-7.1835938-5.6113281
	c-4.1123047-0.6914062-8.4335938,0.9570312-11.2724609,4.3085938c-1.7167969,2.0244141-2.9892578,4.3583984-3.78125,6.9365234
	C20.9238281,21.6181641,15.4609375,24.9472656,6.9257812,24.2919922z M25.0556641,14.9902344
	c0.7119141-2.3173828,1.8544922-4.4140625,3.3945312-6.2314453c2.3857422-2.8134766,5.9882812-4.2050781,9.4150391-3.6289062
	c4.8164062,0.8115234,5.6923828,4.4707031,5.7255859,4.6191406c0.0722656,0.3417969,0.3173828,0.6210938,0.6464844,0.7373047
	l2.3085938,0.8115234l-1.765625,0.8505859c-0.3320312,0.1601562-0.5488281,0.4892578-0.5654297,0.8574219l-0.2138672,4.8466797
	c-0.8039551,12.4074097-7.4823608,16.7757568-11.0171509,18.2284546c-0.0689697,0.0201416-0.1326904,0.0438232-0.1946411,0.0775757
	c-1.0952759,0.4314575-1.8529663,0.5756836-1.9669189,0.5953369c-14.7763672,2.2285156-20.6933594-6.8017578-22.4345703-10.3886719
	C16.9228516,26.5546875,22.703125,22.6328125,25.0556641,14.9902344z"/><path fill="#ffffff" d="M37.3359375 9.3261719c.5527344 0 1-.4472656 1-1s-.4472656-1-1-1h-.0097656c-.5517578 0-.9951172.4472656-.9951172 1S36.7841797 9.3261719 37.3359375 9.3261719zM20.6777344 33.3046875c.9443359.1972656 1.8544922.2958984 2.7285156.2958984 2.0449219 0 3.8896484-.5390625 5.5068359-1.6142578 4.1972656-2.7900391 5.2841797-8.1689453 5.328125-8.3964844.1054688-.5419922-.2490234-1.0664062-.7910156-1.171875-.5410156-.1035156-1.0664062.2490234-1.171875.7910156-.0097656.046875-.9638672 4.7802734-4.4726562 7.1123047-1.8457031 1.2265625-4.1064453 1.5712891-6.7197266 1.0263672-.5390625-.1171875-1.0712891.2333984-1.1826172.7744141C19.7900391 32.6621094 20.1367188 33.1923828 20.6777344 33.3046875z"/></svg>
